<svg width="1200" height="630" viewBox="0 0 1200 630" xmlns="http://www.w3.org/2000/svg"><rect x="0" y="0" width="1200" height="630" fill="#fefbfb"/><defs><clipPath id="satori_bc-id-0"><path x="105" y="39" width="1056" height="504" d="M109,39 h1048 a4,4 0 0 1 4,4 v496 a4,4 0 0 1 -4,4 h-1048 a4,4 0 0 1 -4,-4 v-496 a4,4 0 0 1 4,-4"/></clipPath></defs><g opacity="0.9"><path x="105" y="39" width="1056" height="504" fill="#ecebeb" d="M109,39 h1048 a4,4 0 0 1 4,4 v496 a4,4 0 0 1 -4,4 h-1048 a4,4 0 0 1 -4,-4 v-496 a4,4 0 0 1 4,-4"/><path width="1056" height="504" clip-path="url(#satori_bc-id-0)" fill="none" stroke="#000" stroke-width="8" d="M106.172,40.172 A4,4 0 0 1 109,39 h1048 a4,4 0 0 1 4,4 v496 a4,4 0 0 1 -4,4 h-1048 a4,4 0 0 1 -4,-4 v-496 A4,4 0 0 1 106.172,40.172"/></g><defs><clipPath id="satori_bc-id-1"><path x="72" y="63" width="1056" height="504" d="M76,63 h1048 a4,4 0 0 1 4,4 v496 a4,4 0 0 1 -4,4 h-1048 a4,4 0 0 1 -4,-4 v-496 a4,4 0 0 1 4,-4"/></clipPath></defs><path x="72" y="63" width="1056" height="504" fill="#fefbfb" d="M76,63 h1048 a4,4 0 0 1 4,4 v496 a4,4 0 0 1 -4,4 h-1048 a4,4 0 0 1 -4,-4 v-496 a4,4 0 0 1 4,-4"/><path width="1056" height="504" clip-path="url(#satori_bc-id-1)" fill="none" stroke="#000" stroke-width="8" d="M73.172,64.172 A4,4 0 0 1 76,63 h1048 a4,4 0 0 1 4,4 v496 a4,4 0 0 1 -4,4 h-1048 a4,4 0 0 1 -4,-4 v-496 A4,4 0 0 1 73.172,64.172"/><clipPath id="satori_cp-id-1-0-0"><rect x="128" y="103" width="519" height="94"/></clipPath><mask id="satori_om-id-1-0-0"><rect x="128" y="103" width="519" height="94" fill="#fff"/></mask><path fill="black" d="M155.9 183.0L155.9 161.9L143.3 161.9L143.3 183.0L132.4 183.0L132.4 132.7L143.3 132.7L143.3 153.1L155.9 153.1L155.9 132.7L166.8 132.7L166.8 183.0L155.9 183.0ZM193.8 183.8L193.8 183.8Q184.4 183.8 179.6 178.6Q174.8 173.4 174.8 164.5L174.8 164.5Q174.8 160.0 176.1 156.3Q177.3 152.7 179.7 150.2Q182 147.6 185.3 146.3Q188.7 144.9 192.9 144.9L192.9 144.9Q197.0 144.9 200.4 146.3Q203.7 147.6 206.0 150.0Q208.3 152.5 209.5 156.0Q210.8 159.5 210.8 163.8L210.8 163.8L210.8 167.0L185.4 167.0L185.4 167.6Q185.4 171.2 187.6 173.4Q189.8 175.6 194.2 175.6L194.2 175.6Q197.5 175.6 199.9 174.3Q202.2 173.1 204.0 171.0L204.0 171.0L209.7 177.3Q207.6 179.9 203.7 181.9Q199.8 183.8 193.8 183.8ZM192.9 152.6L192.9 152.6Q189.5 152.6 187.4 154.7Q185.4 156.8 185.4 160.4L185.4 160.4L185.4 161.0L200.4 161.0L200.4 160.4Q200.4 156.7 198.4 154.7Q196.4 152.6 192.9 152.6ZM219.3 183.0L219.3 174.7L230.7 174.7L230.7 138.0L219.3 138.0L219.3 129.7L241.3 129.7L241.3 174.7L252.7 174.7L252.7 183.0L219.3 183.0ZM262.5 183.0L262.5 174.7L273.9 174.7L273.9 138.0L262.5 138.0L262.5 129.7L284.5 129.7L284.5 174.7L295.9 174.7L295.9 183.0L262.5 183.0ZM322.4 183.8L322.4 183.8Q318.1 183.8 314.6 182.5Q311.2 181.2 308.8 178.6Q306.3 176.1 305.0 172.5Q303.8 168.9 303.8 164.4L303.8 164.4Q303.8 159.8 305.0 156.2Q306.3 152.6 308.8 150.1Q311.2 147.6 314.6 146.3Q318.1 144.9 322.4 144.9L322.4 144.9Q326.7 144.9 330.2 146.3Q333.6 147.6 336.0 150.1Q338.5 152.6 339.8 156.2Q341.0 159.8 341.0 164.4L341.0 164.4Q341.0 168.9 339.8 172.5Q338.5 176.1 336.0 178.6Q333.6 181.2 330.2 182.5Q326.7 183.8 322.4 183.8ZM322.4 175.9L322.4 175.9Q326.0 175.9 328.0 173.7Q330.0 171.4 330.0 167.3L330.0 167.3L330.0 161.4Q330.0 157.3 328.0 155.1Q326.0 152.9 322.4 152.9L322.4 152.9Q318.8 152.9 316.8 155.1Q314.8 157.3 314.8 161.4L314.8 161.4L314.8 167.3Q314.8 171.4 316.8 173.7Q318.8 175.9 322.4 175.9Z M404.8 183.0L391.1 183.0L388.0 132.7L397.3 132.7L398.7 162.8L399.2 172.3L399.8 172.3L404.1 143.6L413.8 143.6L418.2 172.3L418.8 172.3L419.2 163.1L420.7 132.7L429.6 132.7L426.5 183.0L412.8 183.0L409.2 155.2L408.4 155.2L404.8 183.0ZM452 183.8L452 183.8Q447.7 183.8 444.2 182.5Q440.8 181.2 438.4 178.6Q435.9 176.1 434.6 172.5Q433.4 168.9 433.4 164.4L433.4 164.4Q433.4 159.8 434.6 156.2Q435.9 152.6 438.4 150.1Q440.8 147.6 444.2 146.3Q447.7 144.9 452 144.9L452 144.9Q456.3 144.9 459.8 146.3Q463.2 147.6 465.6 150.1Q468.1 152.6 469.4 156.2Q470.6 159.8 470.6 164.4L470.6 164.4Q470.6 168.9 469.4 172.5Q468.1 176.1 465.6 178.6Q463.2 181.2 459.8 182.5Q456.3 183.8 452 183.8ZM452 175.9L452 175.9Q455.6 175.9 457.6 173.7Q459.6 171.4 459.6 167.3L459.6 167.3L459.6 161.4Q459.6 157.3 457.6 155.1Q455.6 152.9 452 152.9L452 152.9Q448.4 152.9 446.4 155.1Q444.4 157.3 444.4 161.4L444.4 161.4L444.4 167.3Q444.4 171.4 446.4 173.7Q448.4 175.9 452 175.9ZM478.9 183.0L478.9 174.7L487.5 174.7L487.5 154.1L478.9 154.1L478.9 145.8L498.2 145.8L498.2 156.3L498.7 156.3Q499.2 154.3 500.1 152.4Q501.0 150.5 502.4 149.0Q503.8 147.5 505.8 146.7Q507.8 145.8 510.5 145.8L510.5 145.8L514.1 145.8L514.1 155.6L506.1 155.6Q502.2 155.6 500.2 157.9Q498.2 160.3 498.2 163.7L498.2 163.7L498.2 174.7L510.4 174.7L510.4 183.0L478.9 183.0ZM521.7 183.0L521.7 174.7L533.1 174.7L533.1 138.0L521.7 138.0L521.7 129.7L543.7 129.7L543.7 174.7L555.1 174.7L555.1 183.0L521.7 183.0ZM588.3 183.0L588.3 176.2L587.8 176.2Q586.4 179.6 583.8 181.7Q581.2 183.8 576.8 183.8L576.8 183.8Q573.7 183.8 571.1 182.7Q568.6 181.5 566.7 179.1Q564.9 176.8 563.9 173.1Q562.8 169.4 562.8 164.4L562.8 164.4Q562.8 159.3 563.9 155.7Q564.9 152.0 566.7 149.6Q568.6 147.2 571.1 146.1Q573.7 144.9 576.8 144.9L576.8 144.9Q579.0 144.9 580.7 145.5Q582.5 146.1 583.8 147.1Q585.1 148.1 586.1 149.5Q587.1 150.9 587.8 152.6L587.8 152.6L588.3 152.6L588.3 129.7L599.0 129.7L599.0 183.0L588.3 183.0ZM581.4 175.5L581.4 175.5Q584.2 175.5 586.2 174.2Q588.3 172.8 588.3 169.8L588.3 169.8L588.3 158.9Q588.3 156.0 586.2 154.6Q584.2 153.2 581.4 153.2L581.4 153.2Q577.8 153.2 575.8 155.4Q573.9 157.6 573.9 161.5L573.9 161.5L573.9 167.3Q573.9 171.1 575.8 173.3Q577.8 175.5 581.4 175.5ZM626.5 165.5L623.1 165.5L619.0 147.3L619.0 132.7L630.6 132.7L630.6 147.3L626.5 165.5ZM624.8 183.8L624.8 183.8Q620.9 183.8 619.3 182.2Q617.7 180.5 617.7 178.2L617.7 178.2L617.7 175.9Q617.7 173.7 619.4 172.0Q621.0 170.4 624.8 170.4L624.8 170.4Q628.6 170.4 630.2 172.0Q631.9 173.7 631.9 175.9L631.9 175.9L631.9 178.2Q631.9 180.5 630.3 182.2Q628.7 183.8 624.8 183.8Z " clip-path="url(#satori_cp-id-1-0-0)" mask="url(#satori_om-id-1-0-0)"/><path fill="black" d="M130.7 520.3L130.7 499.6L132.9 499.6L132.9 508.2L133.0 508.2Q134.4 505.5 137.5 505.5L137.5 505.5Q140.1 505.5 141.6 507.5Q143.1 509.5 143.1 513.0L143.1 513.0Q143.1 516.6 141.6 518.6Q140.1 520.6 137.5 520.6L137.5 520.6Q134.4 520.6 133.0 517.9L133.0 517.9L132.9 517.9L132.9 520.3L130.7 520.3ZM136.6 518.6L136.6 518.6Q138.6 518.6 139.6 517.4Q140.7 516.2 140.7 514.3L140.7 514.3L140.7 511.8Q140.7 509.9 139.6 508.7Q138.6 507.5 136.6 507.5L136.6 507.5Q135.8 507.5 135.2 507.7Q134.5 507.9 134.0 508.2Q133.5 508.6 133.2 509.2Q132.9 509.7 132.9 510.4L132.9 510.4L132.9 515.7Q132.9 516.4 133.2 516.9Q133.5 517.5 134.0 517.8Q134.5 518.2 135.2 518.4Q135.8 518.6 136.6 518.6ZM155.4 511.9L157.9 505.8L160.1 505.8L152.9 523.4Q152.7 524.1 152.4 524.5Q152.1 525.0 151.7 525.3Q151.2 525.6 150.7 525.7Q150.1 525.9 149.3 525.9L149.3 525.9L147.1 525.9L147.1 524.0L150.5 524.0L152.1 520.0L146.3 505.8L148.6 505.8L151.0 511.9L153.2 517.4L153.3 517.4L155.4 511.9Z "/><clipPath id="satori_cp-id-1-0-1-0-2"><rect x="178" y="489" width="151" height="36"/></clipPath><mask id="satori_om-id-1-0-1-0-2"><rect x="178" y="489" width="151" height="36" fill="#fff"/></mask><path fill="black" d="M186.1 520.4L186.1 520.4Q183.6 520.4 181.8 519.6Q180.0 518.8 178.9 517.4L178.9 517.4L181.3 514.7Q182.4 515.9 183.6 516.5Q184.9 517.0 186.2 517.0L186.2 517.0Q187.7 517.0 188.5 516.3Q189.3 515.7 189.3 514.4L189.3 514.4Q189.3 513.4 188.7 512.8Q188.1 512.3 186.7 512.1L186.7 512.1L184.6 511.7Q182.0 511.3 180.8 509.8Q179.7 508.3 179.7 506.1L179.7 506.1Q179.7 503.3 181.5 501.8Q183.3 500.2 186.7 500.2L186.7 500.2Q188.9 500.2 190.6 500.9Q192.3 501.6 193.3 502.8L193.3 502.8L191.0 505.5Q190.2 504.6 189.1 504.1Q188.1 503.6 186.7 503.6L186.7 503.6Q183.9 503.6 183.9 506.0L183.9 506.0Q183.9 507.0 184.5 507.5Q185.1 508.0 186.6 508.2L186.6 508.2L188.6 508.6Q191.0 509.0 192.3 510.4Q193.6 511.7 193.6 514.1L193.6 514.1Q193.6 515.4 193.1 516.6Q192.6 517.8 191.7 518.6Q190.7 519.5 189.3 520.0Q187.9 520.4 186.1 520.4ZM210.8 520.1L208.4 520.1Q207.1 520.1 206.4 519.4Q205.6 518.8 205.4 517.5L205.4 517.5L205.3 517.5Q204.9 519.0 203.7 519.7Q202.6 520.4 200.9 520.4L200.9 520.4Q198.8 520.4 197.5 519.3Q196.3 518.2 196.3 516.1L196.3 516.1Q196.3 513.8 197.9 512.8Q199.6 511.7 202.8 511.7L202.8 511.7L205.1 511.7L205.1 510.9Q205.1 509.6 204.5 509.0Q203.9 508.3 202.4 508.3L202.4 508.3Q201.1 508.3 200.3 508.8Q199.5 509.3 198.9 510.2L198.9 510.2L196.6 508.1Q197.4 506.9 198.9 506.1Q200.5 505.3 202.9 505.3L202.9 505.3Q205.9 505.3 207.6 506.7Q209.2 508.0 209.2 510.8L209.2 510.8L209.2 517.1L210.8 517.1L210.8 520.1ZM202.5 517.7L202.5 517.7Q203.6 517.7 204.3 517.2Q205.1 516.6 205.1 515.6L205.1 515.6L205.1 513.9L202.9 513.9Q200.3 513.9 200.3 515.6L200.3 515.6L200.3 516.2Q200.3 516.9 200.9 517.3Q201.5 517.7 202.5 517.7ZM226.5 520.1L221.1 520.1Q218.9 520.1 217.8 518.9Q216.7 517.7 216.7 515.9L216.7 515.9L216.7 508.9L212.8 508.9L212.8 505.6L215.3 505.6Q216.2 505.6 216.6 505.3Q217.0 504.9 217.0 503.9L217.0 503.9L217.0 500.5L220.8 500.5L220.8 505.6L226.5 505.6L226.5 508.9L220.8 508.9L220.8 516.9L226.5 516.9L226.5 520.1Z M255.3 520.1L250.8 507.1L250.5 507.1L250.5 520.1L246.9 520.1L246.9 500.5L251.9 500.5L256.4 513.5L256.7 513.5L256.7 500.5L260.3 500.5L260.3 520.1L255.3 520.1ZM278.0 520.1L275.6 520.1Q274.3 520.1 273.6 519.4Q272.8 518.8 272.6 517.5L272.6 517.5L272.5 517.5Q272.1 519.0 270.9 519.7Q269.8 520.4 268.1 520.4L268.1 520.4Q266.0 520.4 264.7 519.3Q263.5 518.2 263.5 516.1L263.5 516.1Q263.5 513.8 265.1 512.8Q266.8 511.7 270.0 511.7L270.0 511.7L272.3 511.7L272.3 510.9Q272.3 509.6 271.7 509.0Q271.1 508.3 269.6 508.3L269.6 508.3Q268.3 508.3 267.5 508.8Q266.7 509.3 266.1 510.2L266.1 510.2L263.8 508.1Q264.6 506.9 266.1 506.1Q267.7 505.3 270.1 505.3L270.1 505.3Q273.1 505.3 274.8 506.7Q276.4 508.0 276.4 510.8L276.4 510.8L276.4 517.1L278.0 517.1L278.0 520.1ZM269.7 517.7L269.7 517.7Q270.8 517.7 271.5 517.2Q272.3 516.6 272.3 515.6L272.3 515.6L272.3 513.9L270.1 513.9Q267.5 513.9 267.5 515.6L267.5 515.6L267.5 516.2Q267.5 516.9 268.1 517.3Q268.7 517.7 269.7 517.7ZM288.1 503.8L288.1 503.8Q286.7 503.8 286.2 503.2Q285.6 502.6 285.6 501.8L285.6 501.8L285.6 501.0Q285.6 500.2 286.2 499.6Q286.7 499.1 288.1 499.1L288.1 499.1Q289.5 499.1 290.0 499.6Q290.6 500.2 290.6 501.0L290.6 501.0L290.6 501.8Q290.6 502.6 290.0 503.2Q289.5 503.8 288.1 503.8ZM281.4 520.1L281.4 516.9L286.0 516.9L286.0 508.9L281.4 508.9L281.4 505.6L290.2 505.6L290.2 516.9L294.4 516.9L294.4 520.1L281.4 520.1ZM301.6 520.1L297.4 520.1L297.4 505.6L301.6 505.6L301.6 508.3L301.7 508.3Q302.0 507.7 302.3 507.1Q302.7 506.6 303.2 506.2Q303.7 505.8 304.4 505.5Q305.1 505.3 306.0 505.3L306.0 505.3Q307.0 505.3 307.9 505.7Q308.8 506.0 309.4 506.7Q310.0 507.4 310.3 508.4Q310.7 509.4 310.7 510.7L310.7 510.7L310.7 520.1L306.5 520.1L306.5 511.3Q306.5 508.5 304.1 508.5L304.1 508.5Q303.6 508.5 303.2 508.6Q302.7 508.8 302.3 509.0Q302.0 509.3 301.8 509.7Q301.6 510.1 301.6 510.6L301.6 510.6L301.6 520.1ZM328.7 521.5L328.7 521.5Q328.7 523.8 326.8 524.9Q324.9 526.0 320.7 526.0L320.7 526.0Q318.6 526.0 317.3 525.8Q316.0 525.6 315.2 525.1Q314.4 524.7 314.0 524.0Q313.7 523.4 313.7 522.7L313.7 522.7Q313.7 521.5 314.4 520.8Q315.2 520.2 316.5 519.9L316.5 519.9L316.5 519.7Q315.6 519.4 315.0 518.9Q314.5 518.4 314.5 517.4L314.5 517.4Q314.5 516.4 315.2 515.9Q315.9 515.4 317.1 515.1L317.1 515.1L317.1 514.9Q315.8 514.3 315.1 513.2Q314.4 512.1 314.4 510.5L314.4 510.5Q314.4 509.2 314.8 508.2Q315.3 507.3 316.1 506.6Q316.9 506.0 318.1 505.6Q319.2 505.3 320.6 505.3L320.6 505.3Q322.0 505.3 323.2 505.6L323.2 505.6L323.2 504.8Q323.2 504.0 323.8 503.4Q324.4 502.9 325.4 502.9L325.4 502.9L327.9 502.9L327.9 505.9L324.5 505.9L324.5 506.1Q325.6 506.8 326.3 507.8Q327.0 508.9 327.0 510.5L327.0 510.5Q327.0 511.7 326.5 512.7Q326.1 513.6 325.2 514.3Q324.4 514.9 323.2 515.3Q322.1 515.6 320.6 515.6L320.6 515.6Q320.0 515.6 319.4 515.5Q318.8 515.5 318.3 515.3L318.3 515.3Q318.0 515.5 317.8 515.8Q317.6 516.0 317.6 516.4L317.6 516.4Q317.6 516.7 317.7 516.9Q317.9 517.1 318.2 517.2Q318.5 517.3 318.9 517.3Q319.3 517.4 319.7 517.4L319.7 517.4L323.0 517.4Q324.5 517.4 325.6 517.7Q326.7 518.0 327.4 518.6Q328.1 519.1 328.4 519.9Q328.7 520.6 328.7 521.5ZM324.8 521.9L324.8 521.9Q324.8 521.3 324.4 521.0Q323.9 520.7 322.6 520.7L322.6 520.7L317.7 520.7Q317.1 521.1 317.1 521.8L317.1 521.8Q317.1 522.5 317.7 522.9Q318.3 523.4 319.7 523.4L319.7 523.4L322.1 523.4Q323.5 523.4 324.2 523.0Q324.8 522.6 324.8 521.9ZM320.6 513.0L320.6 513.0Q321.9 513.0 322.5 512.4Q323.0 511.7 323.0 510.8L323.0 510.8L323.0 510.1Q323.0 509.2 322.5 508.6Q321.9 507.9 320.6 507.9L320.6 507.9Q319.4 507.9 318.8 508.6Q318.3 509.2 318.3 510.1L318.3 510.1L318.3 510.8Q318.3 511.7 318.8 512.4Q319.4 513.0 320.6 513.0Z " clip-path="url(#satori_cp-id-1-0-1-0-2)" mask="url(#satori_om-id-1-0-1-0-2)"/><clipPath id="satori_cp-id-1-0-1-1"><rect x="836" y="489" width="236" height="36"/></clipPath><mask id="satori_om-id-1-0-1-1"><rect x="836" y="489" width="236" height="36" fill="#fff"/></mask><path fill="black" d="M837.8 520.1L837.8 500.5L844.1 500.5Q848.0 500.5 849.9 503.1Q851.8 505.6 851.8 510.3L851.8 510.3Q851.8 515.1 849.9 517.6Q848.0 520.1 844.1 520.1L844.1 520.1L837.8 520.1ZM841.9 516.8L843.8 516.8Q845.7 516.8 846.6 515.6Q847.4 514.4 847.4 512.1L847.4 512.1L847.4 508.5Q847.4 506.3 846.6 505.1Q845.7 503.9 843.8 503.9L843.8 503.9L841.9 503.9L841.9 516.8ZM868.8 520.1L866.4 520.1Q865.1 520.1 864.4 519.4Q863.6 518.8 863.4 517.5L863.4 517.5L863.3 517.5Q862.9 519.0 861.7 519.7Q860.6 520.4 858.9 520.4L858.9 520.4Q856.8 520.4 855.5 519.3Q854.3 518.2 854.3 516.1L854.3 516.1Q854.3 513.8 855.9 512.8Q857.6 511.7 860.8 511.7L860.8 511.7L863.1 511.7L863.1 510.9Q863.1 509.6 862.5 509.0Q861.9 508.3 860.4 508.3L860.4 508.3Q859.1 508.3 858.3 508.8Q857.5 509.3 856.9 510.2L856.9 510.2L854.6 508.1Q855.4 506.9 856.9 506.1Q858.5 505.3 860.9 505.3L860.9 505.3Q863.9 505.3 865.6 506.7Q867.2 508.0 867.2 510.8L867.2 510.8L867.2 517.1L868.8 517.1L868.8 520.1ZM860.5 517.7L860.5 517.7Q861.6 517.7 862.3 517.2Q863.1 516.6 863.1 515.6L863.1 515.6L863.1 513.9L860.9 513.9Q858.3 513.9 858.3 515.6L858.3 515.6L858.3 516.2Q858.3 516.9 858.9 517.3Q859.5 517.7 860.5 517.7ZM880.5 520.1L875.5 520.1L870.4 505.6L874.7 505.6L876.6 511.8L878.0 516.6L878.2 516.6L879.6 511.8L881.4 505.6L885.6 505.6L880.5 520.1ZM895.7 503.8L895.7 503.8Q894.3 503.8 893.7 503.2Q893.2 502.6 893.2 501.8L893.2 501.8L893.2 501.0Q893.2 500.2 893.7 499.6Q894.3 499.1 895.7 499.1L895.7 499.1Q897.1 499.1 897.6 499.6Q898.2 500.2 898.2 501.0L898.2 501.0L898.2 501.8Q898.2 502.6 897.6 503.2Q897.1 503.8 895.7 503.8ZM889.0 520.1L889.0 516.9L893.6 516.9L893.6 508.9L889.0 508.9L889.0 505.6L897.8 505.6L897.8 516.9L902.0 516.9L902.0 520.1L889.0 520.1ZM914.2 520.1L914.2 517.5L914.0 517.5Q913.4 518.8 912.5 519.6Q911.5 520.4 909.7 520.4L909.7 520.4Q908.5 520.4 907.5 520.0Q906.5 519.5 905.8 518.6Q905.1 517.7 904.7 516.3Q904.3 514.8 904.3 512.9L904.3 512.9Q904.3 510.9 904.7 509.5Q905.1 508.1 905.8 507.1Q906.5 506.2 907.5 505.8Q908.5 505.3 909.7 505.3L909.7 505.3Q910.6 505.3 911.3 505.5Q911.9 505.8 912.5 506.1Q913.0 506.5 913.3 507.1Q913.7 507.6 914.0 508.3L914.0 508.3L914.2 508.3L914.2 499.4L918.3 499.4L918.3 520.1L914.2 520.1ZM911.5 517.2L911.5 517.2Q912.6 517.2 913.4 516.7Q914.2 516.1 914.2 515.0L914.2 515.0L914.2 510.7Q914.2 509.6 913.4 509.1Q912.6 508.5 911.5 508.5L911.5 508.5Q910.1 508.5 909.4 509.4Q908.6 510.2 908.6 511.7L908.6 511.7L908.6 514.0Q908.6 515.5 909.4 516.4Q910.1 517.2 911.5 517.2Z M943.2 520.1L938.9 520.1L938.9 500.5L946.5 500.5Q947.9 500.5 949.0 501.0Q950.2 501.4 950.9 502.2Q951.7 503.0 952.1 504.2Q952.5 505.3 952.5 506.8L952.5 506.8Q952.5 508.2 952.1 509.3Q951.7 510.5 950.9 511.3Q950.2 512.1 949.0 512.5Q947.9 513.0 946.5 513.0L946.5 513.0L943.2 513.0L943.2 520.1ZM943.2 503.9L943.2 509.6L945.4 509.6Q946.9 509.6 947.5 509.0Q948.1 508.5 948.1 507.2L948.1 507.2L948.1 506.3Q948.1 505.1 947.5 504.5Q946.9 503.9 945.4 503.9L945.4 503.9L943.2 503.9ZM962.4 520.4L962.4 520.4Q958.8 520.4 956.9 518.4Q955.0 516.4 955.0 512.9L955.0 512.9Q955.0 511.2 955.5 509.7Q956.0 508.3 956.9 507.3Q957.8 506.3 959.1 505.8Q960.4 505.3 962.0 505.3L962.0 505.3Q963.7 505.3 964.9 505.8Q966.2 506.3 967.1 507.3Q968.0 508.2 968.5 509.6Q969.0 511.0 969.0 512.6L969.0 512.6L969.0 513.9L959.1 513.9L959.1 514.1Q959.1 515.5 960.0 516.4Q960.9 517.2 962.5 517.2L962.5 517.2Q963.8 517.2 964.7 516.7Q965.7 516.3 966.3 515.4L966.3 515.4L968.6 517.9Q967.7 518.9 966.2 519.7Q964.7 520.4 962.4 520.4ZM962.1 508.3L962.1 508.3Q960.7 508.3 959.9 509.1Q959.1 509.9 959.1 511.3L959.1 511.3L959.1 511.6L964.9 511.6L964.9 511.3Q964.9 509.9 964.2 509.1Q963.4 508.3 962.1 508.3ZM978.6 520.4L978.6 520.4Q976.2 520.4 974.4 519.7Q972.7 519.0 971.8 517.7L971.8 517.7L974.1 515.6Q974.9 516.5 976.1 517.0Q977.2 517.5 978.7 517.5L978.7 517.5Q979.9 517.5 980.6 517.1Q981.3 516.8 981.3 516.0L981.3 516.0Q981.3 515.4 980.8 515.1Q980.3 514.9 979.5 514.7L979.5 514.7L977.2 514.4Q976.2 514.2 975.4 513.9Q974.5 513.7 973.9 513.1Q973.3 512.6 972.9 511.9Q972.6 511.2 972.6 510.2L972.6 510.2Q972.6 507.9 974.3 506.6Q976.0 505.3 979.2 505.3L979.2 505.3Q981.3 505.3 982.8 505.9Q984.3 506.5 985.2 507.5L985.2 507.5L983.1 509.9Q982.5 509.2 981.5 508.7Q980.5 508.2 979.0 508.2L979.0 508.2Q976.6 508.2 976.6 509.7L976.6 509.7Q976.6 510.3 977.1 510.6Q977.6 510.8 978.4 510.9L978.4 510.9L980.7 511.3Q981.7 511.4 982.5 511.7Q983.4 512.0 984.0 512.5Q984.6 513.0 985.0 513.8Q985.4 514.5 985.4 515.5L985.4 515.5Q985.4 517.8 983.6 519.1Q981.9 520.4 978.6 520.4ZM996.2 520.4L996.2 520.4Q994.5 520.4 993.1 519.9Q991.8 519.4 990.8 518.4Q989.9 517.4 989.4 516.0Q988.9 514.6 988.9 512.9L988.9 512.9Q988.9 511.1 989.4 509.7Q989.9 508.3 990.8 507.3Q991.8 506.3 993.1 505.8Q994.5 505.3 996.2 505.3L996.2 505.3Q998.5 505.3 1000.0 506.3Q1001.4 507.2 1002.2 508.8L1002.2 508.8L999.0 510.6Q998.6 509.7 998.0 509.2Q997.3 508.6 996.2 508.6L996.2 508.6Q994.7 508.6 994.0 509.4Q993.2 510.3 993.2 511.7L993.2 511.7L993.2 514.0Q993.2 515.5 994.0 516.3Q994.7 517.1 996.2 517.1L996.2 517.1Q997.4 517.1 998.1 516.6Q998.8 516.0 999.3 515.1L999.3 515.1L1002.4 516.9Q1001.6 518.5 1000.1 519.5Q998.6 520.4 996.2 520.4ZM1020.0 520.1L1017.6 520.1Q1016.3 520.1 1015.6 519.4Q1014.8 518.8 1014.6 517.5L1014.6 517.5L1014.5 517.5Q1014.1 519.0 1012.9 519.7Q1011.8 520.4 1010.1 520.4L1010.1 520.4Q1008.0 520.4 1006.7 519.3Q1005.5 518.2 1005.5 516.1L1005.5 516.1Q1005.5 513.8 1007.1 512.8Q1008.8 511.7 1012.0 511.7L1012.0 511.7L1014.3 511.7L1014.3 510.9Q1014.3 509.6 1013.7 509.0Q1013.1 508.3 1011.6 508.3L1011.6 508.3Q1010.3 508.3 1009.5 508.8Q1008.7 509.3 1008.1 510.2L1008.1 510.2L1005.8 508.1Q1006.6 506.9 1008.1 506.1Q1009.7 505.3 1012.1 505.3L1012.1 505.3Q1015.1 505.3 1016.8 506.7Q1018.4 508.0 1018.4 510.8L1018.4 510.8L1018.4 517.1L1020.0 517.1L1020.0 520.1ZM1011.7 517.7L1011.7 517.7Q1012.8 517.7 1013.5 517.2Q1014.3 516.6 1014.3 515.6L1014.3 515.6L1014.3 513.9L1012.1 513.9Q1009.5 513.9 1009.5 515.6L1009.5 515.6L1009.5 516.2Q1009.5 516.9 1010.1 517.3Q1010.7 517.7 1011.7 517.7ZM1022.9 520.1L1022.9 516.9L1026.2 516.9L1026.2 508.9L1022.9 508.9L1022.9 505.6L1030.3 505.6L1030.3 509.7L1030.5 509.7Q1030.7 508.9 1031.1 508.2Q1031.4 507.5 1032.0 506.9Q1032.5 506.3 1033.3 506.0Q1034.1 505.6 1035.2 505.6L1035.2 505.6L1036.5 505.6L1036.5 509.5L1033.5 509.5Q1031.9 509.5 1031.1 510.4Q1030.3 511.3 1030.3 512.6L1030.3 512.6L1030.3 516.9L1035.1 516.9L1035.1 520.1L1022.9 520.1ZM1046.9 503.8L1046.9 503.8Q1045.5 503.8 1044.9 503.2Q1044.4 502.6 1044.4 501.8L1044.4 501.8L1044.4 501.0Q1044.4 500.2 1044.9 499.6Q1045.5 499.1 1046.9 499.1L1046.9 499.1Q1048.3 499.1 1048.8 499.6Q1049.4 500.2 1049.4 501.0L1049.4 501.0L1049.4 501.8Q1049.4 502.6 1048.8 503.2Q1048.3 503.8 1046.9 503.8ZM1040.2 520.1L1040.2 516.9L1044.8 516.9L1044.8 508.9L1040.2 508.9L1040.2 505.6L1049.0 505.6L1049.0 516.9L1053.2 516.9L1053.2 520.1L1040.2 520.1ZM1065.2 520.1L1065.2 517.5L1065.1 517.5Q1064.6 518.7 1063.6 519.6Q1062.5 520.4 1060.8 520.4L1060.8 520.4Q1059.8 520.4 1058.9 520.1Q1058.0 519.7 1057.4 519.0Q1056.8 518.3 1056.5 517.3Q1056.1 516.3 1056.1 515.0L1056.1 515.0L1056.1 505.6L1060.3 505.6L1060.3 514.4Q1060.3 517.2 1062.7 517.2L1062.7 517.2Q1063.2 517.2 1063.6 517.1Q1064.1 517.0 1064.4 516.7Q1064.8 516.5 1065.0 516.1Q1065.2 515.7 1065.2 515.1L1065.2 515.1L1065.2 505.6L1069.4 505.6L1069.4 520.1L1065.2 520.1Z " clip-path="url(#satori_cp-id-1-0-1-1)" mask="url(#satori_om-id-1-0-1-1)"/></svg>